<?xml version="1.0" encoding="UTF-8"?>
<svg version="1.1" xmlns="http://www.w3.org/2000/svg" width="650" height="650">
<path d="M0 0 C214.5 0 429 0 650 0 C650 214.5 650 429 650 650 C435.5 650 221 650 0 650 C0 435.5 0 221 0 0 Z " fill="#FEFEFE" transform="translate(0,0)"/>
<path d="M0 0 C6.925436 6.04382602 13.51080426 12.37719831 19.9851532 18.89854431 C20.94806989 19.86461423 21.91122125 20.8304503 22.87458354 21.79607588 C24.9499066 23.87725874 27.02360709 25.96003977 29.09602737 28.04411316 C32.46989916 31.43693693 35.84737338 34.82616059 39.2252655 38.21498108 C43.4960393 42.50009992 47.76585311 46.78617154 52.03452913 51.07338012 C60.42640784 59.50167366 68.82460104 67.92365009 77.22505188 76.34339905 C78.55101327 77.67247066 79.87697093 79.00154599 81.20292491 80.330625 C83.21188599 82.3443115 85.22085067 84.35799441 87.22983011 86.3716626 C94.7892737 93.94880018 102.34801766 101.52663531 109.90600586 109.10522461 C110.59622004 109.79731585 111.28643423 110.48940709 111.997564 111.20247079 C123.17957844 122.41536872 134.35418291 133.63562646 145.52652862 144.85815709 C157.02232919 156.40515309 168.52776358 167.9424888 180.04166442 179.47143656 C187.12930452 186.5690084 194.20919925 193.67412791 201.27912108 200.78934992 C206.1296452 205.66957582 210.98940753 210.54047671 215.85634246 215.40433615 C218.65754613 218.20432901 221.45463903 221.00811007 224.24065399 223.82322311 C243.55637922 243.57987904 243.55637922 243.57987904 267.5 256.9375 C268.20809814 257.21343994 268.91619629 257.48937988 269.64575195 257.77368164 C287.64809119 264.52631788 308.53057719 265.68289933 327 260 C327.63067383 259.80664062 328.26134766 259.61328125 328.91113281 259.4140625 C342.05079624 255.26267201 353.54826957 248.8004633 363.546875 239.21484375 C365 238 365 238 367 238 C367.07026098 260.6711959 367.1230716 283.3423737 367.15543652 306.01365662 C367.17086739 316.54169365 367.19188419 327.0696628 367.22631836 337.59765625 C367.25633692 346.78003265 367.27560243 355.96235986 367.28226548 365.14478397 C367.28615674 370.00119687 367.29522187 374.85746911 367.31719017 379.71383667 C367.33775271 384.29715049 367.34379443 388.88026747 367.33932304 393.46362305 C367.3401395 395.13397293 367.34598624 396.8043303 367.35761642 398.47463989 C367.44999842 412.44317663 366.07711421 425.84452181 361 439 C360.74863281 439.76054688 360.49726562 440.52109375 360.23828125 441.3046875 C353.86151676 459.36737788 339.37001372 472.86685806 323 482 C322.04528809 482.53584717 322.04528809 482.53584717 321.07128906 483.08251953 C300.56690044 494.30046343 275.39054802 499.04325733 252.4375 493.375 C223.71980652 484.91301024 205.52472209 464.68198293 185.05528641 444.12737489 C182.22692376 441.28841941 179.39553374 438.45248604 176.56446838 435.6162262 C171.67026675 430.7123636 166.77775105 425.8068244 161.88624191 420.90027618 C154.14879646 413.13933729 146.40606053 405.38368813 138.6625061 397.62884521 C136.00706695 394.96940586 133.35166213 392.30993224 130.69626808 389.65044785 C130.03289977 388.98606031 129.36953146 388.32167277 128.68606108 387.63715227 C121.15505737 380.09443344 113.62514073 372.55062981 106.09570312 365.00634766 C105.40829901 364.3175911 104.72089489 363.62883455 104.01266034 362.91920659 C92.85930888 351.74364703 81.70980046 340.56425938 70.56124179 329.38391891 C59.0921646 317.88242793 47.61730932 306.38672288 36.13751948 294.89592433 C29.06836228 287.81955757 22.00396471 280.73850597 14.94568504 273.65128914 C10.10996887 268.79654257 5.26877942 263.94729901 0.42329405 259.10230312 C-2.36864891 256.3102973 -5.15811058 253.51592747 -7.94097328 250.71486855 C-10.4930612 248.14619167 -13.05211512 245.58466685 -15.616661 243.0284296 C-16.97174465 241.67418331 -18.31945178 240.31256801 -19.66679633 238.95062184 C-27.25607943 231.41066473 -35.42488763 225.4018089 -45.0625 220.75 C-46.09709351 220.24315674 -46.09709351 220.24315674 -47.15258789 219.72607422 C-52.00186717 217.3890584 -56.79998623 215.4145038 -62 214 C-63.26457031 213.65324219 -64.52914062 213.30648437 -65.83203125 212.94921875 C-72.4140364 211.51123542 -79.04263634 211.6708316 -85.75 211.6875 C-87.03132813 211.67138672 -88.31265625 211.65527344 -89.6328125 211.63867188 C-109.23224122 211.62873302 -127.55493508 218.13586631 -142.5625 230.9375 C-145 233 -145 233 -147 233 C-147 233.66 -147 234.32 -147 235 C-147.99 235.33 -148.98 235.66 -150 236 C-150.09369942 212.95494061 -150.16410421 189.90991292 -150.20724869 166.86470127 C-150.22781942 156.16290965 -150.25583436 145.46123683 -150.30175781 134.75952148 C-150.34179439 125.42514792 -150.36747264 116.09086044 -150.37635398 106.75640339 C-150.3815404 101.81998746 -150.39361423 96.8838177 -150.42292023 91.94748116 C-150.45035599 87.28779338 -150.45838899 82.62844985 -150.45243073 77.96868896 C-150.45351852 76.27133746 -150.46130293 74.57397273 -150.4768219 72.87669182 C-150.61149577 57.36842161 -148.43526788 42.85000881 -141 29 C-140.50886719 28.04996094 -140.01773438 27.09992188 -139.51171875 26.12109375 C-136.26657111 20.18069223 -132.52665362 14.91984425 -128.1875 9.75 C-127.70716309 9.17652832 -127.22682617 8.60305664 -126.73193359 8.01220703 C-125.53660299 6.63115283 -124.27345945 5.30936129 -123 4 C-122.34 4 -121.68 4 -121 4 C-121 3.34 -121 2.68 -121 2 C-86.4108964 -27.58472265 -35.38009578 -29.78015456 0 0 Z " fill="#FDA92B" transform="translate(217,88)"/>
<path d="M0 0 C1.31948135 -0.00137466 2.63896271 -0.00274933 3.99842834 -0.00416565 C5.45372032 -0.00062692 6.90901207 0.00300788 8.36430359 0.00672913 C9.90196735 0.0070113 11.43963124 0.00685267 12.97729492 0.00628662 C17.14629919 0.00599984 21.31527466 0.01187742 25.48427224 0.01886058 C29.84314086 0.02511384 34.20201015 0.02569948 38.56088257 0.02688599 C46.8126428 0.02999348 55.06438977 0.03819903 63.31614417 0.04823548 C72.71148462 0.05941467 82.10682571 0.06491162 91.50217116 0.06993091 C110.82690967 0.08038212 130.15163583 0.09797031 149.47636414 0.12025452 C149.5699505 20.53087625 149.64041331 40.94145422 149.68361282 61.35224628 C149.70420738 70.83008321 149.73226838 80.30778655 149.77812195 89.78553772 C149.81808506 98.04971748 149.84381951 106.31380045 149.85271811 114.57807416 C149.85791687 118.95092741 149.87007053 123.32350385 149.89928436 127.69626808 C149.9266035 131.81916161 149.93477613 135.9416665 149.92879486 140.06464195 C149.92988777 141.57100925 149.93774304 143.07739067 149.95318604 144.5836792 C150.09546517 159.18805458 146.7243995 170.3234933 136.59745789 181.12416077 C125.77021165 191.25146381 113.72799018 193.71739189 99.41386414 193.43275452 C84.19641299 192.74418207 73.87920033 182.97792822 63.63578796 172.68373108 C62.58077705 171.63443434 61.52514063 170.5857662 60.46893311 169.53767395 C57.62321617 166.70978676 54.78701553 163.87253879 51.95306611 161.03286457 C49.57777498 158.65446709 47.19788386 156.28069885 44.81803054 153.90686774 C39.1999928 148.30283989 33.58974646 142.69109683 27.98442078 137.07435608 C22.21971372 131.2981684 16.44234135 125.53487843 10.65851194 119.77784371 C5.67518617 114.81673367 0.69972183 109.84783486 -4.26957875 104.87267661 C-7.22975522 101.90914377 -10.19269234 98.94852052 -13.16318321 95.99532318 C-15.95727091 93.21679666 -18.74133253 90.42858631 -21.51827431 87.63292694 C-22.5330323 86.6145085 -23.55113736 85.59941123 -24.57298279 84.58810425 C-36.0264388 73.24370467 -43.66063705 61.56246733 -43.89863586 45.12025452 C-43.95851548 31.54364783 -38.71848482 21.62851545 -29.46113586 11.96791077 C-21.04192992 3.89449364 -11.61579928 -0.00934497 0 0 Z " fill="#FE8E0F" transform="translate(433.5236358642578,66.87974548339844)"/>
<path d="M0 0 C3.86243071 3.31346375 7.44658792 6.8876307 11.0300293 10.49658203 C12.09321313 11.55269239 13.15723318 12.60796149 14.22201538 13.66246033 C17.08867513 16.50677455 19.94264423 19.36350034 22.79368949 22.22345591 C25.18524822 24.6201554 27.58302607 27.01058475 29.98078471 29.40107906 C35.64280317 35.04614498 41.29454194 40.70135548 46.93969727 46.36328125 C52.74060585 52.18110103 58.55769279 57.98236644 64.38319272 63.77555382 C69.40578939 68.77135626 74.4185063 73.77692213 79.42349178 78.79036796 C82.40335065 81.77512808 85.38656442 84.75630737 88.37918663 87.7282753 C91.19531506 90.52589188 93.99876925 93.33564705 96.7934227 96.15471077 C97.81335083 97.17959824 98.83743563 98.20037098 99.86622429 99.21636391 C109.86758895 109.10324347 118.09553534 119.83475523 118.43164062 134.3347168 C118.46360422 149.21510262 115.74219239 159.98634426 105 171 C97.11002091 178.40575655 87.54450772 183.12890127 76.64094543 183.12025452 C75.99318089 183.12110894 75.34541634 183.12196337 74.67802256 183.12284368 C72.50382625 183.12449301 70.3297068 183.11898606 68.15551758 183.11352539 C66.59844464 183.11324337 65.04137157 183.11340153 63.48429871 183.1139679 C59.25319473 183.11425531 55.02211899 183.1083676 50.79102159 183.10139394 C46.37074822 183.0951511 41.95047424 183.09455586 37.53019714 183.09336853 C29.15795613 183.09025797 20.78572813 183.08204826 12.41349286 183.07201904 C2.88277206 183.06084939 -6.64794935 183.0553453 -16.17867506 183.05032361 C-35.78579065 183.03986544 -55.3928945 183.02227129 -75 183 C-75.07017149 162.83285698 -75.12302802 142.66573883 -75.15543652 122.49849892 C-75.17088626 113.13388607 -75.1919395 103.76934922 -75.22631836 94.40478516 C-75.25627877 86.23986489 -75.27558876 78.07499967 -75.28226548 69.91002595 C-75.28616651 65.58923613 -75.2952948 61.26860375 -75.31719017 56.94786453 C-75.3376604 52.87508546 -75.34381266 48.80252763 -75.33932304 44.729702 C-75.34014356 43.24066208 -75.34604622 41.75161421 -75.35761642 40.26261902 C-75.46989708 25.05804952 -72.27667184 13.55271044 -61.6875 2.1875 C-57.58372961 -1.64084956 -52.97592688 -4.44228058 -48 -7 C-47.33742188 -7.34289062 -46.67484375 -7.68578125 -45.9921875 -8.0390625 C-30.44530218 -14.56265752 -13.08614914 -9.09064394 0 0 Z " fill="#FBC447" transform="translate(142,400)"/>
</svg>
